<?xml version="1.0" encoding="UTF-8" standalone="no"?>
<!DOCTYPE svg PUBLIC "-//W3C//DTD SVG 1.1//EN"
 "http://www.w3.org/Graphics/SVG/1.1/DTD/svg11.dtd">
<!-- Generated by graphviz version 2.28.0 (20111028.1807)
 -->
<!-- Title: controllers_diagram Pages: 1 -->
<svg width="951pt" height="946pt"
 viewBox="0.00 0.00 951.38 946.00" xmlns="http://www.w3.org/2000/svg" xmlns:xlink="http://www.w3.org/1999/xlink">
<g id="graph1" class="graph" transform="scale(1 1) rotate(0) translate(4 942)">
<title>controllers_diagram</title>
<polygon fill="white" stroke="white" points="-4,5 -4,-942 948.375,-942 948.375,5 -4,5"/>
<!-- _diagram_info -->
<g id="node1" class="node"><title>_diagram_info</title>
<text text-anchor="start" x="744" y="-138" font-family="Times,serif" font-size="13.00">Controllers diagram</text>
<text text-anchor="start" x="744" y="-122.4" font-family="Times,serif" font-size="13.00">Date: Oct 12 2012 &#45; 16:57</text>
<text text-anchor="start" x="744" y="-106.8" font-family="Times,serif" font-size="13.00">Migration version: 20121009042812</text>
<text text-anchor="start" x="744" y="-91.2" font-family="Times,serif" font-size="13.00">Generated by RailRoady 1.0.7</text>
<text text-anchor="start" x="744" y="-75.6" font-family="Times,serif" font-size="13.00">http://railroady.prestonlee.com</text>
</g>
<!-- ApplicationController -->
<g id="node2" class="node"><title>ApplicationController</title>
<polyline fill="none" stroke="black" points="380,-644.5 558.635,-644.5 "/>
<path fill="none" stroke="black" d="M558.635,-644.5C564.635,-644.5 570.635,-650.5 570.635,-656.5"/>
<polyline fill="none" stroke="black" points="570.635,-656.5 570.635,-781.3 "/>
<path fill="none" stroke="black" d="M570.635,-781.3C570.635,-787.3 564.635,-793.3 558.635,-793.3"/>
<polyline fill="none" stroke="black" points="558.635,-793.3 380,-793.3 "/>
<path fill="none" stroke="black" d="M380,-793.3C374,-793.3 368,-787.3 368,-781.3"/>
<polyline fill="none" stroke="black" points="368,-781.3 368,-656.5 "/>
<path fill="none" stroke="black" d="M368,-656.5C368,-650.5 374,-644.5 380,-644.5"/>
<text text-anchor="middle" x="469.317" y="-775.3" font-family="Times,serif" font-size="14.00">ApplicationController</text>
<polyline fill="none" stroke="black" points="368,-768.5 570.635,-768.5 "/>
<text text-anchor="start" x="376" y="-750.5" font-family="Times,serif" font-size="14.00">_callback_before_9</text>
<text text-anchor="start" x="376" y="-733.7" font-family="Times,serif" font-size="14.00">_one_time_conditions_valid_10?</text>
<text text-anchor="start" x="376" y="-716.9" font-family="Times,serif" font-size="14.00">_one_time_conditions_valid_8?</text>
<polyline fill="none" stroke="black" points="368,-710.1 570.635,-710.1 "/>
<polyline fill="none" stroke="black" points="368,-686.1 570.635,-686.1 "/>
<text text-anchor="start" x="376" y="-668.1" font-family="Times,serif" font-size="14.00">_layout</text>
<text text-anchor="start" x="376" y="-651.3" font-family="Times,serif" font-size="14.00">_run_process_action_callbacks</text>
</g>
<!-- DonesemestersController -->
<g id="node3" class="node"><title>DonesemestersController</title>
<polyline fill="none" stroke="black" points="81,-391.5 215.297,-391.5 "/>
<path fill="none" stroke="black" d="M215.297,-391.5C221.297,-391.5 227.297,-397.5 227.297,-403.5"/>
<polyline fill="none" stroke="black" points="227.297,-403.5 227.297,-578.7 "/>
<path fill="none" stroke="black" d="M227.297,-578.7C227.297,-584.7 221.297,-590.7 215.297,-590.7"/>
<polyline fill="none" stroke="black" points="215.297,-590.7 81,-590.7 "/>
<path fill="none" stroke="black" d="M81,-590.7C75,-590.7 69,-584.7 69,-578.7"/>
<polyline fill="none" stroke="black" points="69,-578.7 69,-403.5 "/>
<path fill="none" stroke="black" d="M69,-403.5C69,-397.5 75,-391.5 81,-391.5"/>
<text text-anchor="middle" x="148.148" y="-572.7" font-family="Times,serif" font-size="14.00">DonesemestersController</text>
<polyline fill="none" stroke="black" points="69,-565.9 227.297,-565.9 "/>
<text text-anchor="start" x="77" y="-547.9" font-family="Times,serif" font-size="14.00">create</text>
<text text-anchor="start" x="77" y="-531.1" font-family="Times,serif" font-size="14.00">destroy</text>
<text text-anchor="start" x="77" y="-514.3" font-family="Times,serif" font-size="14.00">edit</text>
<text text-anchor="start" x="77" y="-497.5" font-family="Times,serif" font-size="14.00">index</text>
<text text-anchor="start" x="77" y="-480.7" font-family="Times,serif" font-size="14.00">new</text>
<text text-anchor="start" x="77" y="-463.9" font-family="Times,serif" font-size="14.00">show</text>
<text text-anchor="start" x="77" y="-447.1" font-family="Times,serif" font-size="14.00">update</text>
<polyline fill="none" stroke="black" points="69,-440.3 227.297,-440.3 "/>
<polyline fill="none" stroke="black" points="69,-416.3 227.297,-416.3 "/>
<text text-anchor="start" x="77" y="-398.3" font-family="Times,serif" font-size="14.00">_layout</text>
</g>
<!-- KeyvaluesController -->
<g id="node4" class="node"><title>KeyvaluesController</title>
<polyline fill="none" stroke="black" points="564,-0.5 672.635,-0.5 "/>
<path fill="none" stroke="black" d="M672.635,-0.5C678.635,-0.5 684.635,-6.5 684.635,-12.5"/>
<polyline fill="none" stroke="black" points="684.635,-12.5 684.635,-187.7 "/>
<path fill="none" stroke="black" d="M684.635,-187.7C684.635,-193.7 678.635,-199.7 672.635,-199.7"/>
<polyline fill="none" stroke="black" points="672.635,-199.7 564,-199.7 "/>
<path fill="none" stroke="black" d="M564,-199.7C558,-199.7 552,-193.7 552,-187.7"/>
<polyline fill="none" stroke="black" points="552,-187.7 552,-12.5 "/>
<path fill="none" stroke="black" d="M552,-12.5C552,-6.5 558,-0.5 564,-0.5"/>
<text text-anchor="middle" x="618.317" y="-181.7" font-family="Times,serif" font-size="14.00">KeyvaluesController</text>
<polyline fill="none" stroke="black" points="552,-174.9 684.635,-174.9 "/>
<text text-anchor="start" x="560" y="-156.9" font-family="Times,serif" font-size="14.00">create</text>
<text text-anchor="start" x="560" y="-140.1" font-family="Times,serif" font-size="14.00">destroy</text>
<text text-anchor="start" x="560" y="-123.3" font-family="Times,serif" font-size="14.00">edit</text>
<text text-anchor="start" x="560" y="-106.5" font-family="Times,serif" font-size="14.00">index</text>
<text text-anchor="start" x="560" y="-89.7" font-family="Times,serif" font-size="14.00">new</text>
<text text-anchor="start" x="560" y="-72.9" font-family="Times,serif" font-size="14.00">show</text>
<text text-anchor="start" x="560" y="-56.1" font-family="Times,serif" font-size="14.00">update</text>
<polyline fill="none" stroke="black" points="552,-49.3 684.635,-49.3 "/>
<polyline fill="none" stroke="black" points="552,-25.3 684.635,-25.3 "/>
<text text-anchor="start" x="560" y="-7.3" font-family="Times,serif" font-size="14.00">_layout</text>
</g>
<!-- QuickController -->
<g id="node5" class="node"><title>QuickController</title>
<polyline fill="none" stroke="black" points="633,-644.5 802.283,-644.5 "/>
<path fill="none" stroke="black" d="M802.283,-644.5C808.283,-644.5 814.283,-650.5 814.283,-656.5"/>
<polyline fill="none" stroke="black" points="814.283,-656.5 814.283,-848.5 "/>
<path fill="none" stroke="black" d="M814.283,-848.5C814.283,-854.5 808.283,-860.5 802.283,-860.5"/>
<polyline fill="none" stroke="black" points="802.283,-860.5 633,-860.5 "/>
<path fill="none" stroke="black" d="M633,-860.5C627,-860.5 621,-854.5 621,-848.5"/>
<polyline fill="none" stroke="black" points="621,-848.5 621,-656.5 "/>
<path fill="none" stroke="black" d="M621,-656.5C621,-650.5 627,-644.5 633,-644.5"/>
<text text-anchor="middle" x="717.642" y="-842.5" font-family="Times,serif" font-size="14.00">QuickController</text>
<polyline fill="none" stroke="black" points="621,-835.7 814.283,-835.7 "/>
<text text-anchor="start" x="629" y="-817.7" font-family="Times,serif" font-size="14.00">criteria</text>
<text text-anchor="start" x="629" y="-800.9" font-family="Times,serif" font-size="14.00">dean_signoff</text>
<text text-anchor="start" x="629" y="-784.1" font-family="Times,serif" font-size="14.00">find_faculty_ids_by</text>
<text text-anchor="start" x="629" y="-767.3" font-family="Times,serif" font-size="14.00">get_faculty_ids_by_department</text>
<text text-anchor="start" x="629" y="-750.5" font-family="Times,serif" font-size="14.00">get_faculty_ids_by_school</text>
<text text-anchor="start" x="629" y="-733.7" font-family="Times,serif" font-size="14.00">get_my_faculty_ids</text>
<text text-anchor="start" x="629" y="-716.9" font-family="Times,serif" font-size="14.00">mark_signed_off</text>
<text text-anchor="start" x="629" y="-700.1" font-family="Times,serif" font-size="14.00">show_reason_details</text>
<polyline fill="none" stroke="black" points="621,-693.3 814.283,-693.3 "/>
<polyline fill="none" stroke="black" points="621,-669.3 814.283,-669.3 "/>
<text text-anchor="start" x="629" y="-651.3" font-family="Times,serif" font-size="14.00">_layout</text>
</g>
<!-- ReportController -->
<g id="node6" class="node"><title>ReportController</title>
<polyline fill="none" stroke="black" points="564,-253.5 783.589,-253.5 "/>
<path fill="none" stroke="black" d="M783.589,-253.5C789.589,-253.5 795.589,-259.5 795.589,-265.5"/>
<polyline fill="none" stroke="black" points="795.589,-265.5 795.589,-591.9 "/>
<path fill="none" stroke="black" d="M795.589,-591.9C795.589,-597.9 789.589,-603.9 783.589,-603.9"/>
<polyline fill="none" stroke="black" points="783.589,-603.9 564,-603.9 "/>
<path fill="none" stroke="black" d="M564,-603.9C558,-603.9 552,-597.9 552,-591.9"/>
<polyline fill="none" stroke="black" points="552,-591.9 552,-265.5 "/>
<path fill="none" stroke="black" d="M552,-265.5C552,-259.5 558,-253.5 564,-253.5"/>
<text text-anchor="middle" x="673.794" y="-585.9" font-family="Times,serif" font-size="14.00">ReportController</text>
<polyline fill="none" stroke="black" points="552,-579.1 795.589,-579.1 "/>
<text text-anchor="start" x="560" y="-561.1" font-family="Times,serif" font-size="14.00">course_and_faculty_summary</text>
<text text-anchor="start" x="560" y="-544.3" font-family="Times,serif" font-size="14.00">find_faculty_ids_by</text>
<text text-anchor="start" x="560" y="-527.5" font-family="Times,serif" font-size="14.00">get_faculty_ids_by_department</text>
<text text-anchor="start" x="560" y="-510.7" font-family="Times,serif" font-size="14.00">get_faculty_ids_by_school</text>
<text text-anchor="start" x="560" y="-493.9" font-family="Times,serif" font-size="14.00">get_my_faculty_ids</text>
<text text-anchor="start" x="560" y="-477.1" font-family="Times,serif" font-size="14.00">report_credentialing</text>
<text text-anchor="start" x="560" y="-460.3" font-family="Times,serif" font-size="14.00">report_credentialing_not_completed</text>
<text text-anchor="start" x="560" y="-443.5" font-family="Times,serif" font-size="14.00">report_criteria</text>
<text text-anchor="start" x="560" y="-426.7" font-family="Times,serif" font-size="14.00">report_faculty_course</text>
<text text-anchor="start" x="560" y="-409.9" font-family="Times,serif" font-size="14.00">report_not_passed</text>
<text text-anchor="start" x="560" y="-393.1" font-family="Times,serif" font-size="14.00">report_not_passed_and_not_deansignoff</text>
<text text-anchor="start" x="560" y="-376.3" font-family="Times,serif" font-size="14.00">report_reviewstate</text>
<text text-anchor="start" x="560" y="-359.5" font-family="Times,serif" font-size="14.00">search_by_credit_course</text>
<text text-anchor="start" x="560" y="-342.7" font-family="Times,serif" font-size="14.00">send_reasons</text>
<text text-anchor="start" x="560" y="-325.9" font-family="Times,serif" font-size="14.00">summary</text>
<text text-anchor="start" x="560" y="-309.1" font-family="Times,serif" font-size="14.00">users</text>
<polyline fill="none" stroke="black" points="552,-302.3 795.589,-302.3 "/>
<polyline fill="none" stroke="black" points="552,-278.3 795.589,-278.3 "/>
<text text-anchor="start" x="560" y="-260.3" font-family="Times,serif" font-size="14.00">_layout</text>
</g>
<!-- ReviewreasonsController -->
<g id="node7" class="node"><title>ReviewreasonsController</title>
<polyline fill="none" stroke="black" points="173,-644.5 307.297,-644.5 "/>
<path fill="none" stroke="black" d="M307.297,-644.5C313.297,-644.5 319.297,-650.5 319.297,-656.5"/>
<polyline fill="none" stroke="black" points="319.297,-656.5 319.297,-831.7 "/>
<path fill="none" stroke="black" d="M319.297,-831.7C319.297,-837.7 313.297,-843.7 307.297,-843.7"/>
<polyline fill="none" stroke="black" points="307.297,-843.7 173,-843.7 "/>
<path fill="none" stroke="black" d="M173,-843.7C167,-843.7 161,-837.7 161,-831.7"/>
<polyline fill="none" stroke="black" points="161,-831.7 161,-656.5 "/>
<path fill="none" stroke="black" d="M161,-656.5C161,-650.5 167,-644.5 173,-644.5"/>
<text text-anchor="middle" x="240.148" y="-825.7" font-family="Times,serif" font-size="14.00">ReviewreasonsController</text>
<polyline fill="none" stroke="black" points="161,-818.9 319.297,-818.9 "/>
<text text-anchor="start" x="169" y="-800.9" font-family="Times,serif" font-size="14.00">create</text>
<text text-anchor="start" x="169" y="-784.1" font-family="Times,serif" font-size="14.00">destroy</text>
<text text-anchor="start" x="169" y="-767.3" font-family="Times,serif" font-size="14.00">edit</text>
<text text-anchor="start" x="169" y="-750.5" font-family="Times,serif" font-size="14.00">index</text>
<text text-anchor="start" x="169" y="-733.7" font-family="Times,serif" font-size="14.00">new</text>
<text text-anchor="start" x="169" y="-716.9" font-family="Times,serif" font-size="14.00">show</text>
<text text-anchor="start" x="169" y="-700.1" font-family="Times,serif" font-size="14.00">update</text>
<polyline fill="none" stroke="black" points="161,-693.3 319.297,-693.3 "/>
<polyline fill="none" stroke="black" points="161,-669.3 319.297,-669.3 "/>
<text text-anchor="start" x="169" y="-651.3" font-family="Times,serif" font-size="14.00">_layout</text>
</g>
<!-- SemestersController -->
<g id="node8" class="node"><title>SemestersController</title>
<polyline fill="none" stroke="black" points="104,-138.5 210.311,-138.5 "/>
<path fill="none" stroke="black" d="M210.311,-138.5C216.311,-138.5 222.311,-144.5 222.311,-150.5"/>
<polyline fill="none" stroke="black" points="222.311,-150.5 222.311,-325.7 "/>
<path fill="none" stroke="black" d="M222.311,-325.7C222.311,-331.7 216.311,-337.7 210.311,-337.7"/>
<polyline fill="none" stroke="black" points="210.311,-337.7 104,-337.7 "/>
<path fill="none" stroke="black" d="M104,-337.7C98,-337.7 92,-331.7 92,-325.7"/>
<polyline fill="none" stroke="black" points="92,-325.7 92,-150.5 "/>
<path fill="none" stroke="black" d="M92,-150.5C92,-144.5 98,-138.5 104,-138.5"/>
<text text-anchor="middle" x="157.155" y="-319.7" font-family="Times,serif" font-size="14.00">SemestersController</text>
<polyline fill="none" stroke="black" points="92,-312.9 222.311,-312.9 "/>
<text text-anchor="start" x="100" y="-294.9" font-family="Times,serif" font-size="14.00">create</text>
<text text-anchor="start" x="100" y="-278.1" font-family="Times,serif" font-size="14.00">destroy</text>
<text text-anchor="start" x="100" y="-261.3" font-family="Times,serif" font-size="14.00">edit</text>
<text text-anchor="start" x="100" y="-244.5" font-family="Times,serif" font-size="14.00">index</text>
<text text-anchor="start" x="100" y="-227.7" font-family="Times,serif" font-size="14.00">new</text>
<text text-anchor="start" x="100" y="-210.9" font-family="Times,serif" font-size="14.00">show</text>
<text text-anchor="start" x="100" y="-194.1" font-family="Times,serif" font-size="14.00">update</text>
<polyline fill="none" stroke="black" points="92,-187.3 222.311,-187.3 "/>
<polyline fill="none" stroke="black" points="92,-163.3 222.311,-163.3 "/>
<text text-anchor="start" x="100" y="-145.3" font-family="Times,serif" font-size="14.00">_layout</text>
</g>
<!-- SessionsController -->
<g id="node9" class="node"><title>SessionsController</title>
<polyline fill="none" stroke="black" points="12,-805.5 109.779,-805.5 "/>
<path fill="none" stroke="black" d="M109.779,-805.5C115.779,-805.5 121.779,-811.5 121.779,-817.5"/>
<polyline fill="none" stroke="black" points="121.779,-817.5 121.779,-925.5 "/>
<path fill="none" stroke="black" d="M121.779,-925.5C121.779,-931.5 115.779,-937.5 109.779,-937.5"/>
<polyline fill="none" stroke="black" points="109.779,-937.5 12,-937.5 "/>
<path fill="none" stroke="black" d="M12,-937.5C6,-937.5 0,-931.5 0,-925.5"/>
<polyline fill="none" stroke="black" points="0,-925.5 0,-817.5 "/>
<path fill="none" stroke="black" d="M0,-817.5C0,-811.5 6,-805.5 12,-805.5"/>
<text text-anchor="middle" x="60.8896" y="-919.5" font-family="Times,serif" font-size="14.00">SessionsController</text>
<polyline fill="none" stroke="black" points="0,-912.7 121.779,-912.7 "/>
<text text-anchor="start" x="8" y="-894.7" font-family="Times,serif" font-size="14.00">create</text>
<text text-anchor="start" x="8" y="-877.9" font-family="Times,serif" font-size="14.00">destroy</text>
<text text-anchor="start" x="8" y="-861.1" font-family="Times,serif" font-size="14.00">new</text>
<polyline fill="none" stroke="black" points="0,-854.3 121.779,-854.3 "/>
<polyline fill="none" stroke="black" points="0,-830.3 121.779,-830.3 "/>
<text text-anchor="start" x="8" y="-812.3" font-family="Times,serif" font-size="14.00">_layout</text>
</g>
<!-- StaticPagesController -->
<g id="node10" class="node"><title>StaticPagesController</title>
<polyline fill="none" stroke="black" points="288,-46.5 402.09,-46.5 "/>
<path fill="none" stroke="black" d="M402.09,-46.5C408.09,-46.5 414.09,-52.5 414.09,-58.5"/>
<polyline fill="none" stroke="black" points="414.09,-58.5 414.09,-149.7 "/>
<path fill="none" stroke="black" d="M414.09,-149.7C414.09,-155.7 408.09,-161.7 402.09,-161.7"/>
<polyline fill="none" stroke="black" points="402.09,-161.7 288,-161.7 "/>
<path fill="none" stroke="black" d="M288,-161.7C282,-161.7 276,-155.7 276,-149.7"/>
<polyline fill="none" stroke="black" points="276,-149.7 276,-58.5 "/>
<path fill="none" stroke="black" d="M276,-58.5C276,-52.5 282,-46.5 288,-46.5"/>
<text text-anchor="middle" x="345.045" y="-143.7" font-family="Times,serif" font-size="14.00">StaticPagesController</text>
<polyline fill="none" stroke="black" points="276,-136.9 414.09,-136.9 "/>
<text text-anchor="start" x="284" y="-118.9" font-family="Times,serif" font-size="14.00">register</text>
<text text-anchor="start" x="284" y="-102.1" font-family="Times,serif" font-size="14.00">start</text>
<polyline fill="none" stroke="black" points="276,-95.3 414.09,-95.3 "/>
<polyline fill="none" stroke="black" points="276,-71.3 414.09,-71.3 "/>
<text text-anchor="start" x="284" y="-53.3" font-family="Times,serif" font-size="14.00">_layout</text>
</g>
<!-- WizardController -->
<g id="node11" class="node"><title>WizardController</title>
<polyline fill="none" stroke="black" points="288,-207.5 494.389,-207.5 "/>
<path fill="none" stroke="black" d="M494.389,-207.5C500.389,-207.5 506.389,-213.5 506.389,-219.5"/>
<polyline fill="none" stroke="black" points="506.389,-219.5 506.389,-596.3 "/>
<path fill="none" stroke="black" d="M506.389,-596.3C506.389,-602.3 500.389,-608.3 494.389,-608.3"/>
<polyline fill="none" stroke="black" points="494.389,-608.3 288,-608.3 "/>
<path fill="none" stroke="black" d="M288,-608.3C282,-608.3 276,-602.3 276,-596.3"/>
<polyline fill="none" stroke="black" points="276,-596.3 276,-219.5 "/>
<path fill="none" stroke="black" d="M276,-219.5C276,-213.5 282,-207.5 288,-207.5"/>
<text text-anchor="middle" x="391.194" y="-590.3" font-family="Times,serif" font-size="14.00">WizardController</text>
<polyline fill="none" stroke="black" points="276,-583.5 506.389,-583.5 "/>
<text text-anchor="start" x="284" y="-565.5" font-family="Times,serif" font-size="14.00">_one_time_conditions_valid_58?</text>
<text text-anchor="start" x="284" y="-548.7" font-family="Times,serif" font-size="14.00">approve_course_done</text>
<text text-anchor="start" x="284" y="-531.9" font-family="Times,serif" font-size="14.00">approve_course_for</text>
<text text-anchor="start" x="284" y="-515.1" font-family="Times,serif" font-size="14.00">course</text>
<text text-anchor="start" x="284" y="-498.3" font-family="Times,serif" font-size="14.00">department</text>
<text text-anchor="start" x="284" y="-481.5" font-family="Times,serif" font-size="14.00">faculty</text>
<text text-anchor="start" x="284" y="-464.7" font-family="Times,serif" font-size="14.00">find</text>
<text text-anchor="start" x="284" y="-447.9" font-family="Times,serif" font-size="14.00">justify_course_for</text>
<text text-anchor="start" x="284" y="-431.1" font-family="Times,serif" font-size="14.00">process_justification</text>
<text text-anchor="start" x="284" y="-414.3" font-family="Times,serif" font-size="14.00">process_justification_comments</text>
<text text-anchor="start" x="284" y="-397.5" font-family="Times,serif" font-size="14.00">process_justification_coursework</text>
<text text-anchor="start" x="284" y="-380.7" font-family="Times,serif" font-size="14.00">process_justification_deansignoff</text>
<text text-anchor="start" x="284" y="-363.9" font-family="Times,serif" font-size="14.00">process_justification_done</text>
<text text-anchor="start" x="284" y="-347.1" font-family="Times,serif" font-size="14.00">process_justification_exception</text>
<text text-anchor="start" x="284" y="-330.3" font-family="Times,serif" font-size="14.00">process_justification_signoff_or_done</text>
<text text-anchor="start" x="284" y="-313.5" font-family="Times,serif" font-size="14.00">set_qualification_reasons</text>
<text text-anchor="start" x="284" y="-296.7" font-family="Times,serif" font-size="14.00">show_course_summary</text>
<text text-anchor="start" x="284" y="-279.9" font-family="Times,serif" font-size="14.00">show_courses_for</text>
<polyline fill="none" stroke="black" points="276,-273.1 506.389,-273.1 "/>
<polyline fill="none" stroke="black" points="276,-249.1 506.389,-249.1 "/>
<text text-anchor="start" x="284" y="-231.1" font-family="Times,serif" font-size="14.00">_layout</text>
<text text-anchor="start" x="284" y="-214.3" font-family="Times,serif" font-size="14.00">_run_process_action_callbacks</text>
</g>
</g>
</svg>
