<?xml version="1.0" encoding="UTF-8" standalone="no"?>
<!DOCTYPE svg PUBLIC "-//W3C//DTD SVG 1.1//EN"
 "http://www.w3.org/Graphics/SVG/1.1/DTD/svg11.dtd">
<!-- Generated by graphviz version 2.28.0 (20111028.1807)
 -->
<!-- Title: models_diagram Pages: 1 -->
<svg width="1113pt" height="382pt"
 viewBox="0.00 0.00 1113.00 382.00" xmlns="http://www.w3.org/2000/svg" xmlns:xlink="http://www.w3.org/1999/xlink">
<g id="graph1" class="graph" transform="scale(1 1) rotate(0) translate(4 378)">
<title>models_diagram</title>
<polygon fill="white" stroke="white" points="-4,5 -4,-378 1110,-378 1110,5 -4,5"/>
<!-- _diagram_info -->
<g id="node1" class="node"><title>_diagram_info</title>
<text text-anchor="start" x="7.31226" y="-357" font-family="Times,serif" font-size="13.00">Models diagram</text>
<text text-anchor="start" x="7.31226" y="-341.4" font-family="Times,serif" font-size="13.00">Date: Oct 12 2012 &#45; 16:57</text>
<text text-anchor="start" x="7.31226" y="-325.8" font-family="Times,serif" font-size="13.00">Migration version: 20121009042812</text>
<text text-anchor="start" x="7.31226" y="-310.2" font-family="Times,serif" font-size="13.00">Generated by RailRoady 1.0.7</text>
<text text-anchor="start" x="7.31226" y="-294.6" font-family="Times,serif" font-size="13.00">http://railroady.prestonlee.com</text>
</g>
<!-- Course -->
<g id="node2" class="node"><title>Course</title>
<ellipse fill="none" stroke="black" cx="699" cy="-162" rx="38.0929" ry="18"/>
<text text-anchor="middle" x="699" y="-156.4" font-family="Times,serif" font-size="14.00">Course</text>
</g>
<!-- Reason -->
<g id="node15" class="node"><title>Reason</title>
<ellipse fill="none" stroke="black" cx="819" cy="-90" rx="39.1979" ry="18"/>
<text text-anchor="middle" x="819" y="-84.4" font-family="Times,serif" font-size="14.00">Reason</text>
</g>
<!-- Course&#45;&gt;Reason -->
<g id="edge4" class="edge"><title>Course&#45;&gt;Reason</title>
<path fill="none" stroke="#2d5f35" d="M729.126,-143.426C746.639,-133.211 768.711,-120.336 786.598,-109.901"/>
<ellipse fill="none" stroke="#2d5f35" cx="725.592" cy="-145.488" rx="4.00002" ry="4.00002"/>
<polygon fill="#2d5f35" stroke="#2d5f35" points="786.887,-109.733 797.792,-108.581 791.205,-107.213 795.524,-104.694 795.524,-104.694 795.524,-104.694 791.205,-107.213 793.257,-100.807 786.887,-109.733 786.887,-109.733"/>
</g>
<!-- Section -->
<g id="node18" class="node"><title>Section</title>
<ellipse fill="none" stroke="black" cx="699" cy="-90" rx="40.0039" ry="18"/>
<text text-anchor="middle" x="699" y="-84.4" font-family="Times,serif" font-size="14.00">Section</text>
</g>
<!-- Course&#45;&gt;Section -->
<g id="edge2" class="edge"><title>Course&#45;&gt;Section</title>
<path fill="none" stroke="#40e7c6" d="M699,-135.64C699,-130.063 699,-124.132 699,-118.476"/>
<ellipse fill="none" stroke="#40e7c6" cx="699" cy="-139.697" rx="4" ry="4"/>
<polygon fill="#40e7c6" stroke="#40e7c6" points="699,-118.104 703.5,-108.104 699,-113.104 699,-108.104 699,-108.104 699,-108.104 699,-113.104 694.5,-108.104 699,-118.104 699,-118.104"/>
</g>
<!-- Credit -->
<g id="node3" class="node"><title>Credit</title>
<ellipse fill="none" stroke="black" cx="287" cy="-18" rx="35.2617" ry="18"/>
<text text-anchor="middle" x="287" y="-12.4" font-family="Times,serif" font-size="14.00">Credit</text>
</g>
<!-- Department -->
<g id="node4" class="node"><title>Department</title>
<ellipse fill="none" stroke="black" cx="866" cy="-234" rx="56.4286" ry="18"/>
<text text-anchor="middle" x="866" y="-228.4" font-family="Times,serif" font-size="14.00">Department</text>
</g>
<!-- Department&#45;&gt;Course -->
<g id="edge8" class="edge"><title>Department&#45;&gt;Course</title>
<path fill="none" stroke="#04a1e5" d="M825.462,-216.008C798.182,-204.573 762.492,-189.614 735.986,-178.503"/>
<ellipse fill="none" stroke="#04a1e5" cx="829.317" cy="-217.624" rx="4.00002" ry="4.00002"/>
<polygon fill="#04a1e5" stroke="#04a1e5" points="735.891,-178.464 728.408,-170.448 731.28,-176.531 726.669,-174.598 726.669,-174.598 726.669,-174.598 731.28,-176.531 724.929,-178.748 735.891,-178.464 735.891,-178.464"/>
</g>
<!-- Faculty -->
<g id="node7" class="node"><title>Faculty</title>
<ellipse fill="none" stroke="black" cx="481" cy="-162" rx="40.0039" ry="18"/>
<text text-anchor="middle" x="481" y="-156.4" font-family="Times,serif" font-size="14.00">Faculty</text>
</g>
<!-- Department&#45;&gt;Faculty -->
<g id="edge6" class="edge"><title>Department&#45;&gt;Faculty</title>
<path fill="none" stroke="#33e39d" d="M817.174,-219.743C811.407,-218.38 805.588,-217.095 800,-216 683.36,-193.137 650.995,-205.94 535,-180 530.564,-179.008 525.968,-177.819 521.415,-176.538"/>
<ellipse fill="none" stroke="#33e39d" cx="821.091" cy="-220.696" rx="4.00001" ry="4.00001"/>
<polygon fill="#33e39d" stroke="#33e39d" points="521.182,-176.469 512.875,-169.31 516.388,-175.046 511.595,-173.624 511.595,-173.624 511.595,-173.624 516.388,-175.046 510.315,-177.938 521.182,-176.469 521.182,-176.469"/>
</g>
<!-- User -->
<g id="node24" class="node"><title>User</title>
<ellipse fill="none" stroke="black" cx="976" cy="-162" rx="28.9087" ry="18"/>
<text text-anchor="middle" x="976" y="-156.4" font-family="Times,serif" font-size="14.00">User</text>
</g>
<!-- Department&#45;&gt;User -->
<g id="edge10" class="edge"><title>Department&#45;&gt;User</title>
<path fill="none" stroke="#cd5bc4" d="M896.918,-213.325C912.842,-203.191 932.122,-190.923 947.658,-181.036"/>
<ellipse fill="none" stroke="#cd5bc4" cx="893.515" cy="-215.491" rx="4.00002" ry="4.00002"/>
<polygon fill="#cd5bc4" stroke="#cd5bc4" points="947.883,-180.893 958.735,-179.321 952.101,-178.208 956.319,-175.524 956.319,-175.524 956.319,-175.524 952.101,-178.208 953.903,-171.728 947.883,-180.893 947.883,-180.893"/>
</g>
<!-- Donesemester -->
<g id="node5" class="node"><title>Donesemester</title>
<ellipse fill="none" stroke="black" cx="575" cy="-90" rx="65.6077" ry="18"/>
<text text-anchor="middle" x="575" y="-84.4" font-family="Times,serif" font-size="14.00">Donesemester</text>
</g>
<!-- Employmentstatus -->
<g id="node6" class="node"><title>Employmentstatus</title>
<ellipse fill="none" stroke="black" cx="491" cy="-234" rx="82.3825" ry="18"/>
<text text-anchor="middle" x="491" y="-228.4" font-family="Times,serif" font-size="14.00">Employmentstatus</text>
</g>
<!-- Employmentstatus&#45;&gt;Faculty -->
<g id="edge12" class="edge"><title>Employmentstatus&#45;&gt;Faculty</title>
<path fill="none" stroke="#a2888a" d="M487.377,-207.64C486.56,-201.92 485.69,-195.828 484.863,-190.042"/>
<ellipse fill="none" stroke="#a2888a" cx="487.962" cy="-211.737" rx="4.00001" ry="4.00001"/>
<polygon fill="#a2888a" stroke="#a2888a" points="484.858,-190.004 487.898,-179.468 484.151,-185.054 483.443,-180.104 483.443,-180.104 483.443,-180.104 484.151,-185.054 478.989,-180.741 484.858,-190.004 484.858,-190.004"/>
</g>
<!-- Faculty&#45;&gt;Credit -->
<g id="edge22" class="edge"><title>Faculty&#45;&gt;Credit</title>
<path fill="none" stroke="#92dc96" d="M454.453,-141.569C417.798,-114.739 352,-66.5773 314.73,-39.2969"/>
<ellipse fill="none" stroke="#92dc96" cx="457.742" cy="-143.976" rx="4.00002" ry="4.00002"/>
<polygon fill="#92dc96" stroke="#92dc96" points="314.415,-39.0667 309.004,-29.529 310.38,-36.1134 306.346,-33.1602 306.346,-33.1602 306.346,-33.1602 310.38,-36.1134 303.688,-36.7914 314.415,-39.0667 314.415,-39.0667"/>
</g>
<!-- Faculty&#45;&gt;Donesemester -->
<g id="edge24" class="edge"><title>Faculty&#45;&gt;Donesemester</title>
<path fill="none" stroke="#a9f743" d="M507.361,-141.369C519.182,-132.566 533.177,-122.145 545.36,-113.072"/>
<ellipse fill="none" stroke="#a9f743" cx="504.143" cy="-143.766" rx="4.00002" ry="4.00002"/>
<polygon fill="#a9f743" stroke="#a9f743" points="545.436,-113.016 556.144,-110.652 549.446,-110.029 553.457,-107.043 553.457,-107.043 553.457,-107.043 549.446,-110.029 550.769,-103.434 545.436,-113.016 545.436,-113.016"/>
</g>
<!-- Facultycredential -->
<g id="node8" class="node"><title>Facultycredential</title>
<ellipse fill="none" stroke="black" cx="261" cy="-90" rx="78.104" ry="18"/>
<text text-anchor="middle" x="261" y="-84.4" font-family="Times,serif" font-size="14.00">Facultycredential</text>
</g>
<!-- Faculty&#45;&gt;Facultycredential -->
<g id="edge16" class="edge"><title>Faculty&#45;&gt;Facultycredential</title>
<path fill="none" stroke="#76e45d" d="M441.111,-148.308C405.642,-137.023 353.497,-120.431 314.431,-108.001"/>
<ellipse fill="none" stroke="#76e45d" cx="445.198" cy="-149.609" rx="4.00001" ry="4.00001"/>
<polygon fill="#76e45d" stroke="#76e45d" points="314.328,-107.968 306.163,-100.648 309.564,-106.452 304.799,-104.936 304.799,-104.936 304.799,-104.936 309.564,-106.452 303.434,-109.224 314.328,-107.968 314.328,-107.968"/>
</g>
<!-- Faculty&#45;&gt;Reason -->
<g id="edge20" class="edge"><title>Faculty&#45;&gt;Reason</title>
<path fill="none" stroke="#f41aac" d="M519.801,-148.084C524.884,-146.599 530.046,-145.192 535,-144 628.343,-121.532 653.928,-127.189 748,-108 756.933,-106.178 766.451,-104.038 775.521,-101.902"/>
<ellipse fill="none" stroke="#f41aac" cx="515.75" cy="-149.307" rx="4.00001" ry="4.00001"/>
<polygon fill="#f41aac" stroke="#f41aac" points="775.79,-101.837 786.562,-103.886 780.652,-100.673 785.515,-99.5094 785.515,-99.5094 785.515,-99.5094 780.652,-100.673 784.467,-95.1331 775.79,-101.837 775.79,-101.837"/>
</g>
<!-- Sectioncredential -->
<g id="node19" class="node"><title>Sectioncredential</title>
<ellipse fill="none" stroke="black" cx="443" cy="-18" rx="78.104" ry="18"/>
<text text-anchor="middle" x="443" y="-12.4" font-family="Times,serif" font-size="14.00">Sectioncredential</text>
</g>
<!-- Faculty&#45;&gt;Sectioncredential -->
<g id="edge18" class="edge"><title>Faculty&#45;&gt;Sectioncredential</title>
<path fill="none" stroke="#bf2f79" d="M474.291,-135.929C467.546,-110.725 457.182,-71.9942 450.251,-46.0947"/>
<ellipse fill="none" stroke="#bf2f79" cx="475.382" cy="-140.007" rx="4.00001" ry="4.00001"/>
<polygon fill="#bf2f79" stroke="#bf2f79" points="450.185,-45.8494 451.947,-35.0259 448.893,-41.0193 447.6,-36.1893 447.6,-36.1893 447.6,-36.1893 448.893,-41.0193 443.253,-37.3526 450.185,-45.8494 450.185,-45.8494"/>
</g>
<!-- Sectionenrollment -->
<g id="node20" class="node"><title>Sectionenrollment</title>
<ellipse fill="none" stroke="black" cx="637" cy="-18" rx="81.2564" ry="18"/>
<text text-anchor="middle" x="637" y="-12.4" font-family="Times,serif" font-size="14.00">Sectionenrollment</text>
</g>
<!-- Faculty&#45;&gt;Sectionenrollment -->
<g id="edge14" class="edge"><title>Faculty&#45;&gt;Sectionenrollment</title>
<path fill="none" stroke="#221062" d="M480.215,-135.685C480.94,-116.158 484.999,-89.5948 500,-72 516.505,-52.6408 540.95,-40.3214 564.64,-32.4949"/>
<ellipse fill="none" stroke="#221062" cx="480.15" cy="-139.841" rx="4" ry="4"/>
<polygon fill="#221062" stroke="#221062" points="564.807,-32.4438 575.687,-33.811 569.587,-30.9764 574.367,-29.5091 574.367,-29.5091 574.367,-29.5091 569.587,-30.9764 573.046,-25.2072 564.807,-32.4438 564.807,-32.4438"/>
</g>
<!-- Facultycredential&#45;&gt;Credit -->
<g id="edge26" class="edge"><title>Facultycredential&#45;&gt;Credit</title>
<path fill="none" stroke="#f6c9c9" d="M270.126,-64.4306C272.435,-58.214 274.923,-51.5142 277.261,-45.2195"/>
<ellipse fill="none" stroke="#f6c9c9" cx="268.687" cy="-68.3052" rx="4.00001" ry="4.00001"/>
<polygon fill="#f6c9c9" stroke="#f6c9c9" points="277.282,-45.1633 284.983,-37.3559 279.023,-40.4761 280.764,-35.789 280.764,-35.789 280.764,-35.789 279.023,-40.4761 276.546,-34.2221 277.282,-45.1633 277.282,-45.1633"/>
</g>
<!-- Group -->
<g id="node9" class="node"><title>Group</title>
<ellipse fill="none" stroke="black" cx="976" cy="-234" rx="35.5667" ry="18"/>
<text text-anchor="middle" x="976" y="-228.4" font-family="Times,serif" font-size="14.00">Group</text>
</g>
<!-- Group&#45;&gt;User -->
<g id="edge28" class="edge"><title>Group&#45;&gt;User</title>
<path fill="none" stroke="#57ba45" d="M976,-207.64C976,-202.063 976,-196.132 976,-190.476"/>
<ellipse fill="none" stroke="#57ba45" cx="976" cy="-211.697" rx="4" ry="4"/>
<polygon fill="#57ba45" stroke="#57ba45" points="976,-190.104 980.5,-180.104 976,-185.104 976,-180.104 976,-180.104 976,-180.104 976,-185.104 971.5,-180.104 976,-190.104 976,-190.104"/>
</g>
<!-- Keyvalue -->
<g id="node10" class="node"><title>Keyvalue</title>
<ellipse fill="none" stroke="black" cx="1057" cy="-331" rx="48.0563" ry="18"/>
<text text-anchor="middle" x="1057" y="-325.4" font-family="Times,serif" font-size="14.00">Keyvalue</text>
</g>
<!-- Qualification -->
<g id="node11" class="node"><title>Qualification</title>
<ellipse fill="none" stroke="black" cx="286" cy="-331" rx="61.1861" ry="18"/>
<text text-anchor="middle" x="286" y="-325.4" font-family="Times,serif" font-size="14.00">Qualification</text>
</g>
<!-- Qualification&#45;&gt;Faculty -->
<g id="edge32" class="edge"><title>Qualification&#45;&gt;Faculty</title>
<path fill="none" stroke="#a36841" d="M307.63,-307.033C334.815,-278.373 380.192,-231.266 399,-216 414.403,-203.498 432.86,-191.351 448.36,-181.846"/>
<ellipse fill="none" stroke="#a36841" cx="304.543" cy="-310.293" rx="4.00002" ry="4.00002"/>
<polygon fill="#a36841" stroke="#a36841" points="448.537,-181.739 459.423,-180.425 452.818,-179.156 457.098,-176.572 457.098,-176.572 457.098,-176.572 452.818,-179.156 454.773,-172.72 448.537,-181.739 448.537,-181.739"/>
</g>
<!-- Qualificationaward -->
<g id="node12" class="node"><title>Qualificationaward</title>
<ellipse fill="none" stroke="black" cx="191" cy="-234" rx="85.0719" ry="18"/>
<text text-anchor="middle" x="191" y="-228.4" font-family="Times,serif" font-size="14.00">Qualificationaward</text>
</g>
<!-- Qualification&#45;&gt;Qualificationaward -->
<g id="edge30" class="edge"><title>Qualification&#45;&gt;Qualificationaward</title>
<path fill="none" stroke="#a915cf" d="M263.442,-307.442C248.859,-292.859 229.898,-273.898 215.032,-259.032"/>
<ellipse fill="none" stroke="#a915cf" cx="266.624" cy="-310.624" rx="4.00002" ry="4.00002"/>
<polygon fill="#a915cf" stroke="#a915cf" points="214.748,-258.748 210.859,-248.495 211.212,-255.212 207.677,-251.677 207.677,-251.677 207.677,-251.677 211.212,-255.212 204.495,-254.859 214.748,-258.748 214.748,-258.748"/>
</g>
<!-- Qualificationaward&#45;&gt;Faculty -->
<g id="edge38" class="edge"><title>Qualificationaward&#45;&gt;Faculty</title>
<path fill="none" stroke="#6a821f" d="M252.65,-218.119C307.807,-204.805 387.328,-185.611 436.501,-173.741"/>
<ellipse fill="none" stroke="#6a821f" cx="248.755" cy="-219.059" rx="4.00001" ry="4.00001"/>
<polygon fill="#6a821f" stroke="#6a821f" points="436.793,-173.671 447.57,-175.699 441.653,-172.498 446.514,-171.324 446.514,-171.324 446.514,-171.324 441.653,-172.498 445.458,-166.95 436.793,-173.671 436.793,-173.671"/>
</g>
<!-- Qualificationaward&#45;&gt;Facultycredential -->
<g id="edge34" class="edge"><title>Qualificationaward&#45;&gt;Facultycredential</title>
<path fill="none" stroke="#4126cf" d="M202.997,-208.663C215.506,-183.288 235.05,-143.641 247.94,-117.492"/>
<ellipse fill="none" stroke="#4126cf" cx="201.212" cy="-212.284" rx="4.00002" ry="4.00002"/>
<polygon fill="#4126cf" stroke="#4126cf" points="248.105,-117.159 256.563,-110.179 250.316,-112.674 252.526,-108.189 252.526,-108.189 252.526,-108.189 250.316,-112.674 248.49,-106.2 248.105,-117.159 248.105,-117.159"/>
</g>
<!-- Qualificationaward&#45;&gt;Sectioncredential -->
<g id="edge36" class="edge"><title>Qualificationaward&#45;&gt;Sectioncredential</title>
<path fill="none" stroke="#261da1" d="M219.24,-211.614C251.101,-187.236 304.19,-145.854 348,-108 372.649,-86.7016 399.658,-61.1721 418.555,-42.9283"/>
<ellipse fill="none" stroke="#261da1" cx="215.954" cy="-214.123" rx="4.00002" ry="4.00002"/>
<polygon fill="#261da1" stroke="#261da1" points="418.696,-42.7921 429.009,-39.0639 422.286,-39.3123 425.877,-35.8325 425.877,-35.8325 425.877,-35.8325 422.286,-39.3123 422.745,-32.6011 418.696,-42.7921 418.696,-42.7921"/>
</g>
<!-- Qualificationreason -->
<g id="node13" class="node"><title>Qualificationreason</title>
<ellipse fill="none" stroke="black" cx="842" cy="-162" rx="86.4905" ry="18"/>
<text text-anchor="middle" x="842" y="-156.4" font-family="Times,serif" font-size="14.00">Qualificationreason</text>
</g>
<!-- Qualificationreason&#45;&gt;Reason -->
<g id="edge40" class="edge"><title>Qualificationreason&#45;&gt;Reason</title>
<path fill="none" stroke="#799a88" d="M833.759,-135.92C831.817,-130.01 829.741,-123.689 827.776,-117.71"/>
<ellipse fill="none" stroke="#799a88" cx="835.066" cy="-139.896" rx="4.00001" ry="4.00001"/>
<polygon fill="#799a88" stroke="#799a88" points="827.742,-117.605 828.895,-106.7 826.181,-112.854 824.62,-108.104 824.62,-108.104 824.62,-108.104 826.181,-112.854 820.345,-109.509 827.742,-117.605 827.742,-117.605"/>
</g>
<!-- Rank -->
<g id="node14" class="node"><title>Rank</title>
<ellipse fill="none" stroke="black" cx="623" cy="-234" rx="31.1319" ry="18"/>
<text text-anchor="middle" x="623" y="-228.4" font-family="Times,serif" font-size="14.00">Rank</text>
</g>
<!-- Rank&#45;&gt;Faculty -->
<g id="edge42" class="edge"><title>Rank&#45;&gt;Faculty</title>
<path fill="none" stroke="#6abe9a" d="M592.655,-218.041C570.268,-207.005 539.747,-191.96 516.273,-180.388"/>
<ellipse fill="none" stroke="#6abe9a" cx="596.281" cy="-219.829" rx="4.00002" ry="4.00002"/>
<polygon fill="#6abe9a" stroke="#6abe9a" points="515.981,-180.244 509.001,-171.786 511.496,-178.033 507.011,-175.823 507.011,-175.823 507.011,-175.823 511.496,-178.033 505.022,-179.859 515.981,-180.244 515.981,-180.244"/>
</g>
<!-- Reviewreason -->
<g id="node16" class="node"><title>Reviewreason</title>
<ellipse fill="none" stroke="black" cx="819" cy="-18" rx="65.6077" ry="18"/>
<text text-anchor="middle" x="819" y="-12.4" font-family="Times,serif" font-size="14.00">Reviewreason</text>
</g>
<!-- Reason&#45;&gt;Reviewreason -->
<g id="edge44" class="edge"><title>Reason&#45;&gt;Reviewreason</title>
<path fill="none" stroke="#f9cbe7" d="M819,-61.6651C819,-56.6867 819,-51.4906 819,-46.5072"/>
<polygon fill="#f9cbe7" stroke="#f9cbe7" points="819,-61.6966 814.5,-71.6966 819,-66.6966 819,-71.6966 819,-71.6966 819,-71.6966 819,-66.6966 823.5,-71.6967 819,-61.6966 819,-61.6966"/>
<polygon fill="#f9cbe7" stroke="#f9cbe7" points="819,-46.1043 823.5,-36.1043 819,-41.1043 819,-36.1043 819,-36.1043 819,-36.1043 819,-41.1043 814.5,-36.1044 819,-46.1043 819,-46.1043"/>
</g>
<!-- School -->
<g id="node17" class="node"><title>School</title>
<ellipse fill="none" stroke="black" cx="953" cy="-331" rx="37.2949" ry="18"/>
<text text-anchor="middle" x="953" y="-325.4" font-family="Times,serif" font-size="14.00">School</text>
</g>
<!-- School&#45;&gt;Department -->
<g id="edge46" class="edge"><title>School&#45;&gt;Department</title>
<path fill="none" stroke="#ab8c8c" d="M933.122,-308.294C919.705,-293.644 901.985,-274.294 888.122,-259.156"/>
<ellipse fill="none" stroke="#ab8c8c" cx="935.932" cy="-311.363" rx="4.00002" ry="4.00002"/>
<polygon fill="#ab8c8c" stroke="#ab8c8c" points="888.02,-259.045 884.585,-248.631 884.643,-255.357 881.266,-251.67 881.266,-251.67 881.266,-251.67 884.643,-255.357 877.948,-254.709 888.02,-259.045 888.02,-259.045"/>
</g>
<!-- School&#45;&gt;User -->
<g id="edge48" class="edge"><title>School&#45;&gt;User</title>
<path fill="none" stroke="#596bb5" d="M977.52,-309.921C992.956,-295.61 1011.51,-274.906 1020,-252 1025.56,-236.997 1025.43,-231.049 1020,-216 1015.73,-204.168 1007.54,-193.111 999.372,-184.19"/>
<ellipse fill="none" stroke="#596bb5" cx="974.543" cy="-312.598" rx="4.00002" ry="4.00002"/>
<polygon fill="#596bb5" stroke="#596bb5" points="999.28,-184.096 995.522,-173.794 995.79,-180.515 992.3,-176.935 992.3,-176.935 992.3,-176.935 995.79,-180.515 989.077,-180.076 999.28,-184.096 999.28,-184.096"/>
</g>
<!-- Section&#45;&gt;Sectioncredential -->
<g id="edge52" class="edge"><title>Section&#45;&gt;Sectioncredential</title>
<path fill="none" stroke="#a887e0" d="M660.843,-75.6945C656.857,-74.4043 652.855,-73.1495 649,-72 601.268,-57.7676 546.649,-43.82 505.65,-33.808"/>
<ellipse fill="none" stroke="#a887e0" cx="664.646" cy="-76.9485" rx="4.00001" ry="4.00001"/>
<polygon fill="#a887e0" stroke="#a887e0" points="505.515,-33.7753 496.861,-27.041 500.657,-32.5945 495.798,-31.4138 495.798,-31.4138 495.798,-31.4138 500.657,-32.5945 494.735,-35.7865 505.515,-33.7753 505.515,-33.7753"/>
</g>
<!-- Section&#45;&gt;Sectionenrollment -->
<g id="edge50" class="edge"><title>Section&#45;&gt;Sectionenrollment</title>
<path fill="none" stroke="#851a99" d="M679.587,-67.0823C673.016,-59.6636 665.634,-51.3289 658.885,-43.7086"/>
<ellipse fill="none" stroke="#851a99" cx="682.279" cy="-70.1216" rx="4.00002" ry="4.00002"/>
<polygon fill="#851a99" stroke="#851a99" points="658.508,-43.2833 655.246,-32.8137 655.193,-39.5403 651.878,-35.7973 651.878,-35.7973 651.878,-35.7973 655.193,-39.5403 648.509,-38.781 658.508,-43.2833 658.508,-43.2833"/>
</g>
<!-- Semester -->
<g id="node21" class="node"><title>Semester</title>
<ellipse fill="none" stroke="black" cx="590" cy="-162" rx="46.1519" ry="18"/>
<text text-anchor="middle" x="590" y="-156.4" font-family="Times,serif" font-size="14.00">Semester</text>
</g>
<!-- Semester&#45;&gt;Donesemester -->
<g id="edge56" class="edge"><title>Semester&#45;&gt;Donesemester</title>
<path fill="none" stroke="#62d3ac" d="M584.64,-135.987C583.411,-130.249 582.097,-124.121 580.848,-118.293"/>
<ellipse fill="none" stroke="#62d3ac" cx="585.531" cy="-140.144" rx="4.00001" ry="4.00001"/>
<polygon fill="#62d3ac" stroke="#62d3ac" points="580.797,-118.053 583.102,-107.332 579.75,-113.164 578.702,-108.275 578.702,-108.275 578.702,-108.275 579.75,-113.164 574.302,-109.218 580.797,-118.053 580.797,-118.053"/>
</g>
<!-- Semester&#45;&gt;Section -->
<g id="edge54" class="edge"><title>Semester&#45;&gt;Section</title>
<path fill="none" stroke="#0605b1" d="M619.771,-141.881C634.863,-132.189 653.164,-120.436 668.374,-110.668"/>
<ellipse fill="none" stroke="#0605b1" cx="616.216" cy="-144.164" rx="4.00002" ry="4.00002"/>
<polygon fill="#0605b1" stroke="#0605b1" points="668.51,-110.58 679.356,-108.963 672.718,-107.879 676.925,-105.177 676.925,-105.177 676.925,-105.177 672.718,-107.879 674.493,-101.39 668.51,-110.58 668.51,-110.58"/>
</g>
<!-- Tenurestatus -->
<g id="node22" class="node"><title>Tenurestatus</title>
<ellipse fill="none" stroke="black" cx="732" cy="-234" rx="59.5542" ry="18"/>
<text text-anchor="middle" x="732" y="-228.4" font-family="Times,serif" font-size="14.00">Tenurestatus</text>
</g>
<!-- Tenurestatus&#45;&gt;Faculty -->
<g id="edge58" class="edge"><title>Tenurestatus&#45;&gt;Faculty</title>
<path fill="none" stroke="#66a9b7" d="M680.048,-219.662C640.23,-209.285 583.985,-194.293 535,-180 530.913,-178.808 526.664,-177.532 522.424,-176.236"/>
<ellipse fill="none" stroke="#66a9b7" cx="684.164" cy="-220.733" rx="4.00001" ry="4.00001"/>
<polygon fill="#66a9b7" stroke="#66a9b7" points="522.179,-176.16 513.958,-168.903 517.403,-174.681 512.627,-173.202 512.627,-173.202 512.627,-173.202 517.403,-174.681 511.296,-177.501 522.179,-176.16 522.179,-176.16"/>
</g>
<!-- Title -->
<g id="node23" class="node"><title>Title</title>
<ellipse fill="none" stroke="black" cx="323" cy="-234" rx="28.4049" ry="18"/>
<text text-anchor="middle" x="323" y="-228.4" font-family="Times,serif" font-size="14.00">Title</text>
</g>
<!-- Title&#45;&gt;Faculty -->
<g id="edge60" class="edge"><title>Title&#45;&gt;Faculty</title>
<path fill="none" stroke="#ae3ca1" d="M353.042,-219.69C378.982,-208.198 416.546,-191.556 444.268,-179.274"/>
<ellipse fill="none" stroke="#ae3ca1" cx="349.295" cy="-221.35" rx="4.00002" ry="4.00002"/>
<polygon fill="#ae3ca1" stroke="#ae3ca1" points="444.485,-179.178 455.451,-179.241 449.056,-177.152 453.628,-175.127 453.628,-175.127 453.628,-175.127 449.056,-177.152 451.805,-171.013 444.485,-179.178 444.485,-179.178"/>
</g>
<!-- User&#45;&gt;Reason -->
<g id="edge62" class="edge"><title>User&#45;&gt;Reason</title>
<path fill="none" stroke="#235d37" d="M945.468,-147.387C919.702,-135.899 882.756,-119.426 855.445,-107.25"/>
<ellipse fill="none" stroke="#235d37" cx="949.181" cy="-149.042" rx="4.00002" ry="4.00002"/>
<polygon fill="#235d37" stroke="#235d37" points="855.355,-107.209 848.054,-99.0269 850.788,-105.173 846.221,-103.137 846.221,-103.137 846.221,-103.137 850.788,-105.173 844.389,-107.247 855.355,-107.209 855.355,-107.209"/>
</g>
</g>
</svg>
